# xmcd CD database file
#
# Track frame offsets:
#	150
#	41218
#	56285
#	75763
#	84425
#	88126
#	111606
#	135884
#	154797
#	169652
#	206226
#	230929
#	244997
#	278695
#
# Disc length: 4190 seconds
#
# Revision: 10
# Processed by: cddbd v1.5.2PL0 Copyright (c) Steve Scherf et al.
# Submitted via: CDex 1.51
#
DISCID=ba105c0e
DTITLE=Liszt - La Légende de Sainte Elizabeth (János Ferencsik, Slovak Philharmonic Orchestra)  [CD 1-2]
DYEAR=2007
DGENRE=Classique
TTITLE0=I. Arrivée d'Elisabeth à Wartburg  a) Elle est saluée par le peuple et par Hermann
TTITLE1=b) Discours du magnat hongrois et salut du choeur
TTITLE2=c) Réplique du landgrave Hermann
TTITLE3=d) Premier entretien de Louis et d'Elisabeth
TTITLE4=e) Jeux et choeur des enfants
TTITLE5=f) Le choeur re rend son salut de bienvenue
TTITLE6=II. Landgrave Louis  a) Air de chasse
TTITLE7=b) Louis rencontre Elisabeth
TTITLE8=c) Le miracle de la rose
TTITLE9=d) Action de grâce de Louis et d'Elisabeth, accompagnée du choeur
TTITLE10=III. Les Croisés  a) Choeur des Croisés
TTITLE11=b) Récitative du Landgrave Louis
TTITLE12=c) Louis tait ses adieux à Elisabeth
TTITLE13=d) Marche des Croisés
EXTD=YEAR: 2007
EXTT0=
EXTT1=
EXTT2=
EXTT3=
EXTT4=
EXTT5=
EXTT6=
EXTT7=
EXTT8=
EXTT9=
EXTT10=
EXTT11=
EXTT12=
EXTT13=
PLAYORDER=
